<?xml version="1.0" encoding="utf-8"?>
<!-- Generator: Adobe Illustrator 25.4.1, SVG Export Plug-In . SVG Version: 6.00 Build 0)  -->
<svg version="1.1" id="Vrstva_1" xmlns="http://www.w3.org/2000/svg" xmlns:xlink="http://www.w3.org/1999/xlink" x="0px" y="0px"
	 viewBox="0 0 1200 800" style="enable-background:new 0 0 1200 800;" xml:space="preserve">
<style type="text/css">
	.st0{clip-path:url(#SVGID_00000070796638928201032680000018012929953949448616_);}
	.st1{fill:#FF225C;}
	.st2{fill:#FF00CF;}
	.st3{fill:#2A006B;}
	.st4{fill:#0D2FDA;}
	.st5{opacity:0.75;}
	.st6{fill:none;}
	.st7{font-family:'MyriadPro-Regular';}
	.st8{font-size:238.8934px;}
	.st9{font-size:238.8931px;}
	.st10{font-size:238.8937px;}
	.st11{opacity:0.57;}
</style>
<g>
	<g>
		<defs>
			<rect id="SVGID_1_" width="1200" height="800"/>
		</defs>
		<clipPath id="SVGID_00000139257908332756083530000010159035264242333854_">
			<use xlink:href="#SVGID_1_"  style="overflow:visible;"/>
		</clipPath>
		<g style="clip-path:url(#SVGID_00000139257908332756083530000010159035264242333854_);">
		</g>
	</g>
</g>
<g>
	
		<image style="overflow:visible;" width="1203" height="1413" xlink:href="../../../../../DIVA/diva/pics/cliparts/diva.png"  transform="matrix(0.4076 0 0 0.4076 191.5777 115.4235)">
	</image>
	<g>
		
			<image style="overflow:visible;opacity:0.75;" width="288" height="287" xlink:href="21978E69.png"  transform="matrix(1 0 0 1 689.0146 366.256)">
		</image>
		<g>
			<circle class="st1" cx="831.3" cy="511.7" r="131.4"/>
		</g>
	</g>
	<g>
		
			<image style="overflow:visible;opacity:0.75;" width="120" height="120" xlink:href="21978E70.png"  transform="matrix(1 0 0 1 892.0146 528.2559)">
		</image>
		<g>
			<circle class="st2" cx="949.8" cy="590.5" r="47.3"/>
		</g>
	</g>
	<g>
		
			<image style="overflow:visible;opacity:0.75;" width="141" height="142" xlink:href="21978E71.png"  transform="matrix(1 0 0 1 848.0146 218.256)">
		</image>
		<g>
			<circle class="st3" cx="916.4" cy="291.4" r="58.3"/>
		</g>
	</g>
	<g>
		
			<image style="overflow:visible;opacity:0.75;" width="68" height="67" xlink:href="21978E72.png"  transform="matrix(1 0 0 1 1011.0146 223.256)">
		</image>
		<g>
			<circle class="st4" cx="1043" cy="259" r="21"/>
		</g>
	</g>
	<g class="st5">
		
			<image style="overflow:visible;opacity:0.75;" width="249" height="353" xlink:href="21978E73.png"  transform="matrix(1 0 0 1 274 209)">
		</image>
		<g>
			<rect x="284.7" y="249.5" class="st6" width="224.1" height="298"/>
			<text transform="matrix(1 0 0 1 284.6975 419.1164)" class="st1 st7 st8">D</text>
		</g>
	</g>
	<g>
		
			<image style="overflow:visible;opacity:0.75;" width="305" height="285" xlink:href="21978E74.png"  transform="matrix(1 0 0 1 341 296)">
		</image>
		<g>
			
				<rect x="397.4" y="363" transform="matrix(0.865 -0.5017 0.5017 0.865 -155.2566 311.291)" class="st6" width="207.2" height="162.4"/>
			<text transform="matrix(0.5017 0.865 -0.865 0.5017 403.1332 407.1037)" class="st4 st7 st9">I</text>
		</g>
	</g>
	<g>
		
			<image style="overflow:visible;opacity:0.75;" width="341" height="334" xlink:href="21978E75.png"  transform="matrix(1 0 0 1 449 321)">
		</image>
		<g>
			
				<rect x="521.8" y="377.3" transform="matrix(0.7327 -0.6805 0.6805 0.7327 -157.5808 555.5468)" class="st6" width="213.3" height="202.1"/>
			<text transform="matrix(0.7113 -0.7029 0.7029 0.7113 600.346 597.9333)" class="st3 st7 st10">V</text>
		</g>
	</g>
	<g class="st11">
		
			<image style="overflow:visible;opacity:0.75;" width="240" height="285" xlink:href="21978E77.png"  transform="matrix(1 0 0 1 646 429)">
		</image>
		<g>
			<rect x="656" y="470.1" class="st6" width="215.4" height="192.6"/>
			<text transform="matrix(1 0 0 1 656.0471 639.7277)" class="st2 st7 st8">A</text>
		</g>
	</g>
	<g>
		<path class="st1" d="M334.7,724.6"/>
		<g>
			<path class="st1" d="M334.7,726.1c1.9,0,1.9-3,0-3C332.8,723.1,332.8,726.1,334.7,726.1L334.7,726.1z"/>
		</g>
	</g>
	<g>
		<path class="st1" d="M345.5,736.4"/>
		<g>
			<path class="st1" d="M345.5,737.9c1.9,0,1.9-3,0-3C343.5,734.9,343.5,737.9,345.5,737.9L345.5,737.9z"/>
		</g>
	</g>
	<g>
		<path class="st1" d="M312.2,751.5"/>
		<g>
			<path class="st1" d="M312.2,753c1.9,0,1.9-3,0-3C310.2,750,310.2,753,312.2,753L312.2,753z"/>
		</g>
	</g>
	<g>
		<path class="st1" d="M271.4,712.8"/>
		<g>
			<path class="st1" d="M271.4,714.3c1.9,0,1.9-3,0-3C269.4,711.3,269.4,714.3,271.4,714.3L271.4,714.3z"/>
		</g>
	</g>
	<g>
		<path class="st1" d="M334.7,657"/>
		<g>
			<path class="st1" d="M334.7,658.5c1.9,0,1.9-3,0-3C332.8,655.5,332.8,658.5,334.7,658.5L334.7,658.5z"/>
		</g>
	</g>
	<g>
		<path class="st1" d="M344.5,735.3c-0.7,0.9-0.3,2.3,0.8,2.7c1-0.3,1.4-1.7,0.7-2.5c-0.7-0.8-2.1-0.7-2.6,0.2c-0.5,0.9,0,2.1,1,2.4
			c0.9,0.3,2-0.3,2.4-1.2c0.3-0.9-0.1-2-0.9-2.6"/>
		<g>
			<path class="st1" d="M343.5,734.2c-0.3,0.4-0.6,0.9-0.7,1.4c-0.1,0.5-0.1,1.1,0.1,1.6c0.2,0.5,0.4,1,0.8,1.4
				c0.5,0.5,1.4,1,2.1,0.7c1-0.4,1.8-1.2,2-2.3c0.2-1,0-2.2-0.9-2.9c-0.3-0.3-0.6-0.4-1-0.6c-0.3-0.1-0.5-0.1-0.8-0.2
				c-0.4,0-0.9,0-1.3,0.1c-0.5,0.2-1,0.4-1.3,0.9c-0.5,0.5-0.7,1.1-0.7,1.8c0,0.6,0.1,1.1,0.4,1.6c0.2,0.5,0.6,0.9,1.1,1.2
				c0.5,0.3,1,0.5,1.6,0.5c0.6,0,1.2-0.1,1.7-0.4c1.2-0.5,1.9-1.8,1.9-3c0-0.6-0.2-1.3-0.4-1.8c-0.3-0.6-0.8-1-1.3-1.4
				c-0.3-0.2-0.8-0.2-1.2-0.2c-0.3,0.1-0.7,0.4-0.9,0.7c-0.2,0.3-0.3,0.8-0.2,1.2c0.1,0.4,0.4,0.7,0.7,0.9c0,0,0.1,0.1,0.1,0.1
				c-0.1-0.1-0.2-0.2-0.3-0.2c0.1,0.1,0.3,0.2,0.4,0.4c-0.1-0.1-0.2-0.2-0.2-0.3c0.1,0.2,0.2,0.4,0.3,0.6c-0.1-0.1-0.1-0.2-0.2-0.4
				c0.1,0.2,0.1,0.4,0.2,0.6c0-0.1,0-0.3-0.1-0.4c0,0.2,0,0.4,0,0.6c0-0.1,0-0.3,0.1-0.4c0,0.2-0.1,0.3-0.1,0.5
				c0.1-0.1,0.1-0.2,0.2-0.4c-0.1,0.1-0.1,0.3-0.2,0.4c0.1-0.1,0.2-0.2,0.2-0.3c-0.1,0.1-0.2,0.2-0.4,0.4c0.1-0.1,0.2-0.2,0.3-0.2
				c-0.1,0.1-0.3,0.2-0.5,0.3c0.1-0.1,0.2-0.1,0.4-0.2c-0.2,0.1-0.3,0.1-0.5,0.1c0.1,0,0.3,0,0.4-0.1c-0.2,0-0.3,0-0.5,0
				c0.1,0,0.3,0,0.4,0.1c-0.1,0-0.3-0.1-0.4-0.1c0.1,0.1,0.2,0.1,0.4,0.2c-0.1-0.1-0.3-0.1-0.4-0.2c0.1,0.1,0.2,0.2,0.3,0.2
				c-0.1-0.1-0.2-0.2-0.3-0.3c0.1,0.1,0.2,0.2,0.2,0.3c-0.1-0.1-0.2-0.3-0.2-0.4c0.1,0.1,0.1,0.2,0.2,0.4c-0.1-0.2-0.1-0.3-0.1-0.5
				c0,0.1,0,0.3,0.1,0.4c0-0.1,0-0.3,0-0.4c0,0.1,0,0.3-0.1,0.4c0-0.1,0.1-0.2,0.1-0.4c-0.1,0.1-0.1,0.2-0.2,0.4
				c0-0.1,0.1-0.2,0.2-0.3c-0.1,0.1-0.2,0.2-0.2,0.3c0.1-0.1,0.2-0.2,0.2-0.2c-0.1,0.1-0.2,0.2-0.3,0.2c0.1-0.1,0.2-0.1,0.3-0.2
				c-0.1,0.1-0.2,0.1-0.4,0.2c0.2-0.1,0.3-0.1,0.5-0.1c-0.1,0-0.3,0-0.4,0.1c0.2,0,0.3,0,0.5,0c-0.1,0-0.3,0-0.4-0.1
				c0.1,0,0.3,0.1,0.4,0.1c-0.1-0.1-0.2-0.1-0.4-0.2c0.1,0,0.2,0.1,0.3,0.2c-0.1-0.1-0.2-0.2-0.3-0.2c0.1,0.1,0.2,0.2,0.2,0.2
				c-0.1-0.1-0.2-0.2-0.2-0.3c0.1,0.1,0.1,0.2,0.2,0.3c-0.1-0.1-0.1-0.2-0.2-0.4c0,0.1,0.1,0.2,0.1,0.4c0-0.1,0-0.3-0.1-0.4
				c0,0.1,0,0.3,0,0.4c0-0.1,0-0.3,0.1-0.4c0,0.2-0.1,0.3-0.1,0.5c0.1-0.1,0.1-0.2,0.2-0.4c-0.1,0.1-0.1,0.3-0.2,0.4
				c0.1-0.1,0.2-0.2,0.2-0.3c-0.1,0.1-0.2,0.2-0.3,0.3c0.1-0.1,0.2-0.2,0.3-0.2c-0.1,0.1-0.2,0.1-0.3,0.2c0.1-0.1,0.2-0.1,0.4-0.2
				c0,0-0.1,0-0.1,0c0.3,0,0.5,0,0.8,0c0,0-0.1,0-0.1,0c0.1,0.1,0.2,0.1,0.4,0.2c-0.1-0.1-0.2-0.1-0.3-0.2c0.1,0.1,0.2,0.2,0.3,0.2
				c-0.1-0.1-0.2-0.2-0.3-0.3c0.1,0.1,0.2,0.2,0.2,0.3c-0.1-0.1-0.2-0.3-0.2-0.4c0.1,0.1,0.1,0.2,0.2,0.4c-0.1-0.2-0.1-0.3-0.1-0.5
				c0,0.1,0,0.3,0.1,0.4c0-0.2,0-0.3,0-0.5c0,0.1,0,0.3-0.1,0.4c0-0.1,0.1-0.3,0.1-0.4c-0.1,0.1-0.1,0.2-0.2,0.4
				c0-0.1,0.1-0.2,0.2-0.3c-0.1,0.1-0.2,0.2-0.2,0.3c0,0,0,0,0,0c0.3-0.3,0.4-0.6,0.4-1.1c0-0.4-0.2-0.8-0.4-1.1
				c-0.3-0.3-0.7-0.5-1.1-0.4C344.2,733.8,343.7,733.9,343.5,734.2L343.5,734.2z"/>
		</g>
	</g>
	<g>
		<path class="st1" d="M334.9,724c-0.5-0.8-1.3-1.4-2.2-1.3c-0.9,0-1.8,0.8-1.7,1.8c0.1,0.9,1.2,1.6,2,1.1c0.8-0.5,0.4-2-0.5-2
			c0.3,0.5,0.6,0.9,1,1.4"/>
		<g>
			<path class="st1" d="M336.2,723.2c-0.7-1.2-2-2.1-3.4-2.1c-1.4,0-2.9,1-3.2,2.4c-0.2,0.7-0.1,1.5,0.3,2.2c0.4,0.6,1,1.1,1.7,1.3
				c1.4,0.5,3-0.4,3.2-1.8c0.1-0.7,0.1-1.5-0.3-2.1c-0.4-0.7-1.2-1.2-2-1.2c-0.5,0-1,0.3-1.3,0.7c-0.3,0.4-0.3,1.1,0,1.5
				c0.3,0.5,0.6,0.9,1,1.4c0.2,0.3,0.5,0.6,0.9,0.7c0.4,0.1,0.8,0.1,1.2-0.2c0.3-0.2,0.6-0.5,0.7-0.9c0.1-0.4,0.1-0.8-0.2-1.2
				c-0.3-0.5-0.6-0.9-1-1.4c-0.4,0.8-0.9,1.5-1.3,2.3c0,0,0.1,0,0.1,0c-0.1,0-0.3,0-0.4-0.1c0.1,0,0.1,0,0.2,0
				c-0.1-0.1-0.2-0.1-0.4-0.2c0.1,0,0.1,0.1,0.2,0.1c-0.1-0.1-0.2-0.2-0.3-0.2c0.1,0,0.1,0.1,0.2,0.2c-0.1-0.1-0.2-0.2-0.2-0.3
				c0.1,0.1,0.1,0.2,0.2,0.3c-0.1-0.1-0.1-0.2-0.2-0.4c0,0.1,0.1,0.2,0.1,0.3c0-0.1,0-0.3-0.1-0.4c0,0.1,0,0.2,0,0.4
				c0-0.1,0-0.3,0.1-0.4c0,0.1,0,0.2-0.1,0.3c0.1-0.1,0.1-0.2,0.2-0.4c0,0.1-0.1,0.2-0.1,0.2c0.1-0.1,0.2-0.2,0.2-0.3
				c0,0.1-0.1,0.1-0.1,0.1c0.1-0.1,0.2-0.2,0.3-0.2c-0.1,0.1-0.2,0.1-0.2,0.1c0.1-0.1,0.2-0.1,0.4-0.2c-0.1,0-0.2,0.1-0.3,0.1
				c0.1,0,0.3,0,0.4-0.1c-0.1,0-0.2,0-0.3,0c0.1,0,0.3,0,0.4,0.1c-0.1,0-0.2-0.1-0.4-0.1c0.1,0.1,0.2,0.1,0.4,0.2
				c-0.1-0.1-0.2-0.1-0.3-0.2c0.1,0.1,0.2,0.2,0.3,0.2c-0.1-0.1-0.2-0.2-0.3-0.3c0.1,0.1,0.2,0.2,0.2,0.3c-0.1-0.1-0.1-0.2-0.2-0.3
				c0.1,0.1,0.1,0.2,0.2,0.4c0-0.1-0.1-0.2-0.1-0.3c0,0.1,0,0.3,0.1,0.4c0-0.1,0-0.2,0-0.4c0,0.1,0,0.3-0.1,0.4
				c0-0.1,0.1-0.2,0.1-0.4c-0.1,0.1-0.1,0.2-0.2,0.4c0.1-0.1,0.1-0.3,0.2-0.4c-0.1,0.1-0.2,0.2-0.2,0.3c0.1-0.1,0.2-0.2,0.4-0.4
				c-0.1,0.1-0.2,0.2-0.3,0.2c0.1-0.1,0.3-0.2,0.4-0.3c-0.1,0.1-0.2,0.1-0.4,0.2c0.1-0.1,0.3-0.1,0.4-0.1c-0.1,0-0.3,0-0.4,0.1
				c0.2,0,0.3,0,0.5,0c-0.1,0-0.3,0-0.4-0.1c0.2,0,0.4,0.1,0.6,0.2c-0.1-0.1-0.2-0.1-0.4-0.2c0.2,0.1,0.4,0.2,0.6,0.3
				c-0.1-0.1-0.2-0.2-0.3-0.2c0.2,0.2,0.4,0.3,0.6,0.5c-0.1-0.1-0.2-0.2-0.2-0.3c0.1,0.1,0.1,0.2,0.2,0.3c0.4,0.7,1.4,1,2.1,0.5
				C336.3,724.9,336.6,724,336.2,723.2L336.2,723.2z"/>
		</g>
	</g>
	<g>
		<path class="st1" d="M312.5,750c0.9,0.4,1,1.7,0.3,2.3s-2,0.1-2.2-0.8s0.9-1.8,1.8-1.5"/>
		<g>
			<path class="st1" d="M311.8,751.3c0.1,0,0.2,0.1,0.2,0.1C311.9,751.4,311.8,751.3,311.8,751.3c0,0,0.1,0,0.1,0.1
				c-0.1-0.1-0.2-0.2-0.2-0.3c0.1,0.1,0.1,0.2,0.2,0.3c-0.1-0.1-0.1-0.2-0.2-0.4c0.1,0.1,0.1,0.3,0.1,0.4c0-0.1,0-0.3-0.1-0.4
				c0,0.1,0,0.3,0,0.4c0-0.1,0-0.3,0.1-0.4c0,0.1-0.1,0.2-0.1,0.4c0.1-0.1,0.1-0.2,0.2-0.4C311.8,751.2,311.8,751.3,311.8,751.3
				c0,0,0.1-0.1,0.2-0.2C311.9,751.1,311.8,751.2,311.8,751.3c0.1-0.1,0.2-0.2,0.3-0.3c-0.1,0.1-0.2,0.1-0.3,0.2
				c0.1-0.1,0.2-0.1,0.4-0.2c-0.1,0-0.2,0.1-0.3,0.1c0.1,0,0.3,0,0.4-0.1c-0.1,0-0.3,0-0.4,0c0.1,0,0.3,0,0.4,0.1
				c-0.1,0-0.3-0.1-0.4-0.1c0.1,0.1,0.2,0.1,0.4,0.2c-0.1-0.1-0.2-0.1-0.4-0.2c0.1,0.1,0.2,0.2,0.3,0.2c-0.1-0.1-0.2-0.2-0.2-0.2
				c0.1,0.1,0.2,0.2,0.2,0.3c-0.1-0.1-0.1-0.2-0.2-0.3c0.1,0.1,0.1,0.2,0.2,0.4c0-0.1-0.1-0.2-0.1-0.3c0,0.1,0,0.3,0.1,0.4
				c0-0.1,0-0.2,0-0.3c0,0.1,0,0.3-0.1,0.4c0-0.1,0-0.2,0.1-0.3c-0.1,0.1-0.1,0.2-0.2,0.4c0-0.1,0.1-0.2,0.2-0.3
				c-0.1,0.1-0.2,0.2-0.2,0.3c0.1-0.1,0.2-0.2,0.3-0.3c-0.1,0.1-0.2,0.2-0.3,0.2c0.1-0.1,0.2-0.2,0.3-0.2c-0.1,0.1-0.2,0.1-0.4,0.2
				c0.1,0,0.2-0.1,0.4-0.1c-0.1,0-0.3,0-0.4,0.1c0.1,0,0.2,0,0.3,0C312.1,751.4,311.9,751.4,311.8,751.3c0.1,0.1,0.2,0.1,0.2,0.1
				c0.4,0.1,0.8,0,1.2-0.2c0.3-0.2,0.6-0.5,0.7-0.9c0.1-0.4,0.1-0.8-0.2-1.2c-0.2-0.3-0.5-0.6-0.9-0.7c-0.1,0-0.3-0.1-0.4-0.1
				c-0.1,0-0.3,0-0.4,0c-0.3,0-0.6,0.1-0.8,0.2c-0.2,0.1-0.4,0.1-0.5,0.2c-0.2,0.1-0.3,0.2-0.5,0.4c-0.2,0.2-0.4,0.4-0.5,0.6
				c-0.2,0.2-0.3,0.5-0.3,0.7c0,0.1-0.1,0.3-0.1,0.4c0,0.1,0,0.3,0,0.4c0,0.2,0,0.4,0.1,0.6c0,0.2,0.1,0.4,0.2,0.5
				c0.1,0.2,0.3,0.4,0.4,0.6c0.3,0.4,0.8,0.6,1.3,0.8c0.5,0.2,1.1,0.2,1.6,0c0.1,0,0.1,0,0.2-0.1c0.2-0.1,0.4-0.1,0.5-0.2
				c0.2-0.1,0.4-0.3,0.6-0.5c0.1-0.1,0.2-0.3,0.3-0.4c0.1-0.2,0.2-0.4,0.2-0.5c0.1-0.2,0.1-0.5,0.1-0.8c0.1-0.6-0.1-1.1-0.3-1.6
				c-0.1-0.2-0.3-0.5-0.5-0.6c-0.1-0.1-0.3-0.3-0.5-0.4c-0.1,0-0.1-0.1-0.2-0.1c-0.2-0.1-0.4-0.2-0.6-0.2c-0.2,0-0.4,0-0.6,0
				c-0.3,0.1-0.7,0.4-0.9,0.7c-0.2,0.3-0.3,0.8-0.2,1.2C311.2,750.8,311.4,751.1,311.8,751.3L311.8,751.3z"/>
		</g>
	</g>
	<g>
		<path class="st1" d="M367.9,711.3c-0.6,0.7-0.5,1.9,0.2,2.5c0.7,0.6,1.9,0.6,2.5-0.1c0.8-0.8,0.6-2.3-0.3-2.9
			c-0.9-0.7-2.3-0.5-3,0.3c-0.6,0.6-0.8,1.5-0.4,2.2c0.4,0.7,1.5,0.9,2.1,0.3s0-1.8-0.8-1.6c-0.9,0.2-0.9,1.7-0.1,2
			c0.3-0.4,0.6-0.8,0.9-1.2c0.2,0.2,0.4,0.5,0.5,0.7"/>
		<g>
			<path class="st1" d="M366.8,710.2c-0.3,0.4-0.5,0.7-0.7,1.1c-0.1,0.3-0.2,0.7-0.2,1c0,0.6,0.1,1.4,0.5,1.9
				c0.8,1.2,2.4,1.8,3.8,1.4c0.8-0.2,1.4-0.7,1.8-1.3c0.4-0.5,0.5-1.2,0.5-1.8c0-1.3-0.7-2.6-1.8-3.2c-1.2-0.6-2.7-0.6-3.8,0.1
				c-1.3,0.8-2,2.3-1.7,3.8c0.2,0.7,0.7,1.4,1.3,1.8c0.6,0.4,1.4,0.5,2.1,0.4c0.7-0.1,1.4-0.6,1.7-1.2c0.2-0.4,0.3-0.8,0.3-1.2
				c0-0.4-0.1-0.8-0.3-1.2c-0.3-0.6-0.9-1.1-1.5-1.3c-0.8-0.2-1.7,0.1-2.2,0.7c-0.9,1-0.9,2.6,0,3.6c0.3,0.3,0.6,0.5,1,0.6
				c0.1,0,0.3,0,0.4,0.1c0.2,0,0.4,0,0.6-0.1c0.3-0.1,0.5-0.3,0.7-0.6c0.3-0.4,0.6-0.8,0.9-1.2c-0.9,0-1.7,0-2.6,0
				c0.2,0.2,0.4,0.5,0.5,0.7c0.3,0.3,0.5,0.6,0.9,0.7c0.4,0.1,0.8,0.1,1.2-0.2c0.3-0.2,0.6-0.5,0.7-0.9c0.1-0.4,0.1-0.8-0.2-1.2
				c-0.2-0.2-0.4-0.5-0.5-0.7c-0.1-0.2-0.3-0.4-0.5-0.5c-0.2-0.1-0.5-0.2-0.8-0.2c-0.3,0-0.5,0.1-0.8,0.2c-0.2,0.1-0.4,0.3-0.5,0.5
				c-0.3,0.4-0.6,0.8-0.9,1.2c0.6-0.2,1.1-0.5,1.7-0.7c0,0,0,0-0.1,0c0.1,0.1,0.2,0.1,0.4,0.2c-0.1,0-0.1-0.1-0.2-0.1
				c0.1,0.1,0.2,0.2,0.3,0.2c-0.1-0.1-0.1-0.1-0.2-0.2c0.1,0.1,0.2,0.2,0.2,0.3c0-0.1-0.1-0.1-0.1-0.2c0.1,0.1,0.1,0.2,0.2,0.4
				c0-0.1-0.1-0.2-0.1-0.3c0,0.1,0,0.3,0.1,0.4c0-0.1,0-0.2,0-0.4c0,0.1,0,0.3-0.1,0.4c0-0.1,0-0.2,0.1-0.3
				c-0.1,0.1-0.1,0.2-0.2,0.4c0-0.1,0.1-0.2,0.1-0.2c-0.1,0.1-0.2,0.2-0.2,0.3c0-0.1,0.1-0.1,0.1-0.1c-0.1,0.1-0.2,0.2-0.3,0.2
				c0.1,0,0.1-0.1,0.2-0.1c-0.1,0.1-0.2,0.1-0.4,0.2c0.1,0,0.1,0,0.2-0.1c-0.1,0-0.3,0-0.4,0.1c0.1,0,0.1,0,0.2,0
				c-0.1,0-0.3,0-0.4-0.1c0.1,0,0.1,0,0.2,0c-0.1-0.1-0.2-0.1-0.4-0.2c0.1,0,0.1,0.1,0.2,0.1c-0.1-0.1-0.2-0.2-0.3-0.2
				c0.1,0.1,0.1,0.1,0.2,0.2c-0.1-0.1-0.2-0.2-0.2-0.3c0.1,0.1,0.1,0.2,0.1,0.2c-0.1-0.1-0.1-0.2-0.2-0.4c0,0.1,0.1,0.2,0.1,0.3
				c0-0.1,0-0.3-0.1-0.4c0,0.1,0,0.2,0,0.3c0-0.1,0-0.3,0.1-0.4c0,0.1,0,0.2-0.1,0.2c0.1-0.1,0.1-0.2,0.2-0.4c0,0.1-0.1,0.1-0.1,0.2
				c0.1-0.1,0.2-0.2,0.2-0.3c0,0.1-0.1,0.1-0.2,0.2c0.1-0.1,0.2-0.2,0.3-0.2c-0.1,0.1-0.1,0.1-0.2,0.1c0.1-0.1,0.2-0.1,0.4-0.2
				c-0.1,0-0.2,0.1-0.3,0.1c0.1,0,0.3,0,0.4-0.1c-0.1,0-0.3,0-0.4,0c0.1,0,0.3,0,0.4,0.1c-0.1,0-0.3-0.1-0.4-0.1
				c0.1,0.1,0.2,0.1,0.4,0.2c-0.1-0.1-0.2-0.1-0.3-0.2c0.1,0.1,0.2,0.2,0.3,0.2c-0.1-0.1-0.2-0.1-0.2-0.2c0.1,0.1,0.2,0.2,0.2,0.3
				c-0.1-0.1-0.1-0.2-0.2-0.3c0.1,0.1,0.1,0.2,0.2,0.4c-0.1-0.1-0.1-0.3-0.1-0.4c0,0.1,0,0.3,0.1,0.4c0-0.2,0-0.3,0-0.5
				c0,0.1,0,0.3-0.1,0.4c0-0.2,0.1-0.4,0.2-0.6c-0.1,0.1-0.1,0.2-0.2,0.4c0.1-0.2,0.2-0.3,0.3-0.5c-0.1,0.1-0.2,0.2-0.2,0.3
				c0.1-0.1,0.2-0.3,0.4-0.4c-0.1,0.1-0.2,0.2-0.3,0.2c0.2-0.1,0.3-0.2,0.5-0.3c-0.1,0.1-0.2,0.1-0.4,0.2c0.2-0.1,0.4-0.2,0.7-0.2
				c-0.1,0-0.3,0-0.4,0.1c0.2,0,0.4,0,0.6,0c-0.1,0-0.3,0-0.4-0.1c0.2,0,0.4,0.1,0.6,0.2c-0.1-0.1-0.2-0.1-0.4-0.2
				c0.2,0.1,0.3,0.1,0.4,0.2c-0.1-0.1-0.2-0.2-0.3-0.2c0.1,0.1,0.2,0.2,0.3,0.3c-0.1-0.1-0.2-0.2-0.2-0.3c0.1,0.1,0.2,0.3,0.3,0.4
				c-0.1-0.1-0.1-0.2-0.2-0.4c0.1,0.2,0.1,0.4,0.2,0.6c0-0.1,0-0.3-0.1-0.4c0,0.2,0,0.4,0,0.6c0-0.1,0-0.3,0.1-0.4
				c0,0.2-0.1,0.3-0.1,0.5c0.1-0.1,0.1-0.2,0.2-0.4c-0.1,0.1-0.1,0.3-0.2,0.4c0.1-0.1,0.2-0.2,0.2-0.3c-0.1,0.1-0.2,0.2-0.3,0.3
				c0.1-0.1,0.2-0.2,0.3-0.2c-0.1,0.1-0.2,0.2-0.4,0.2c0.1-0.1,0.2-0.1,0.4-0.2c-0.2,0.1-0.3,0.1-0.5,0.1c0.1,0,0.3,0,0.4-0.1
				c-0.2,0-0.3,0-0.5,0c0.1,0,0.3,0,0.4,0.1c-0.2,0-0.3-0.1-0.5-0.1c0.1,0.1,0.2,0.1,0.4,0.2c-0.1-0.1-0.3-0.1-0.4-0.2
				c0.1,0.1,0.2,0.2,0.3,0.2c-0.1-0.1-0.2-0.2-0.3-0.3c0.1,0.1,0.2,0.2,0.2,0.3c-0.1-0.1-0.2-0.2-0.2-0.4c0.1,0.1,0.1,0.2,0.2,0.4
				c-0.1-0.2-0.1-0.3-0.1-0.5c0,0.1,0,0.3,0.1,0.4c0-0.2,0-0.4,0-0.5c0,0.1,0,0.3-0.1,0.4c0-0.2,0.1-0.3,0.1-0.5
				c-0.1,0.1-0.1,0.2-0.2,0.4c0.1-0.1,0.1-0.3,0.2-0.4c-0.1,0.1-0.2,0.2-0.2,0.3c0,0,0,0,0,0c0.3-0.3,0.4-0.6,0.4-1.1
				c0-0.4-0.2-0.8-0.4-1.1c-0.3-0.3-0.7-0.5-1.1-0.4C367.5,709.8,367,709.9,366.8,710.2L366.8,710.2z"/>
		</g>
	</g>
	<g>
		<path class="st1" d="M318.5,673.7c-0.4-0.6-0.9-1.2-1.3-1.8c1-0.5,2.4,0,2.7,1c0.4,1-0.5,2.3-1.6,2.3c-1.1-0.1-1.8-1.6-1.2-2.4
			s2.4-0.4,2.5,0.7c0.1,1.1-1.7,1.8-2.3,0.9c-0.5-0.8,0.2-2,1.2-1.9c0.9,0.1,1.3,1.5,0.6,2.1"/>
		<g>
			<path class="st1" d="M319.8,672.9c-0.4-0.6-0.9-1.2-1.3-1.8c-0.2,0.7-0.4,1.4-0.5,2.1c0,0,0.1,0,0.1-0.1
				c-0.1,0.1-0.2,0.1-0.4,0.2c0.2-0.1,0.3-0.1,0.5-0.1c-0.1,0-0.3,0-0.4,0.1c0.2,0,0.3,0,0.5,0c-0.1,0-0.3,0-0.4-0.1
				c0.2,0,0.4,0.1,0.5,0.1c-0.1-0.1-0.2-0.1-0.4-0.2c0.2,0.1,0.3,0.2,0.5,0.3c-0.1-0.1-0.2-0.2-0.3-0.2c0.1,0.1,0.2,0.2,0.3,0.3
				c-0.1-0.1-0.2-0.2-0.2-0.3c0.1,0.1,0.1,0.2,0.2,0.3c-0.1-0.1-0.1-0.2-0.2-0.4c0.1,0.1,0.1,0.3,0.1,0.4c0-0.1,0-0.3-0.1-0.4
				c0,0.1,0,0.3,0,0.4c0-0.1,0-0.3,0.1-0.4c0,0.2-0.1,0.3-0.1,0.5c0.1-0.1,0.1-0.2,0.2-0.4c-0.1,0.2-0.2,0.3-0.3,0.4
				c0.1-0.1,0.2-0.2,0.2-0.3c-0.1,0.1-0.2,0.2-0.3,0.3c0.1-0.1,0.2-0.2,0.3-0.2c-0.1,0.1-0.2,0.2-0.4,0.2c0.1-0.1,0.2-0.1,0.4-0.2
				c-0.1,0.1-0.3,0.1-0.4,0.1c0.1,0,0.3,0,0.4-0.1c-0.1,0-0.2,0-0.4,0c0.1,0,0.3,0,0.4,0.1c-0.1,0-0.2,0-0.3-0.1
				c0.1,0.1,0.2,0.1,0.4,0.2c-0.1-0.1-0.2-0.1-0.3-0.2c0.1,0.1,0.2,0.2,0.3,0.2c-0.1-0.1-0.2-0.2-0.3-0.3c0.1,0.1,0.2,0.2,0.2,0.3
				c-0.1-0.1-0.2-0.3-0.2-0.4c0.1,0.1,0.1,0.2,0.2,0.4c-0.1-0.2-0.1-0.3-0.1-0.5c0,0.1,0,0.3,0.1,0.4c0-0.1,0-0.2,0-0.4
				c0,0.1,0,0.3-0.1,0.4c0-0.1,0-0.2,0.1-0.3c-0.1,0.1-0.1,0.2-0.2,0.4c0-0.1,0.1-0.2,0.2-0.3c-0.1,0.1-0.2,0.2-0.2,0.3
				c0.1-0.1,0.1-0.1,0.2-0.2c-0.1,0.1-0.2,0.2-0.3,0.2c0.1-0.1,0.2-0.1,0.3-0.2c-0.1,0.1-0.2,0.1-0.4,0.2c0.1,0,0.2-0.1,0.4-0.1
				c-0.1,0-0.3,0-0.4,0.1c0.1,0,0.3,0,0.4,0c-0.1,0-0.3,0-0.4-0.1c0.1,0,0.3,0.1,0.4,0.1c-0.1-0.1-0.2-0.1-0.4-0.2
				c0.1,0.1,0.2,0.1,0.4,0.2c-0.1-0.1-0.2-0.2-0.3-0.2c0.1,0.1,0.2,0.1,0.2,0.2c-0.1-0.1-0.2-0.2-0.2-0.3c0.1,0.1,0.1,0.2,0.1,0.3
				c-0.1-0.1-0.1-0.2-0.2-0.4c0,0.1,0.1,0.2,0.1,0.3c0-0.1,0-0.3-0.1-0.4c0,0.1,0,0.2,0,0.3c0-0.1,0-0.3,0.1-0.4
				c0,0.1,0,0.2-0.1,0.3c0.1-0.1,0.1-0.2,0.2-0.4c0,0.1-0.1,0.2-0.1,0.3c0.1-0.1,0.2-0.2,0.2-0.3c-0.1,0.1-0.2,0.2-0.3,0.3
				c0.1-0.1,0.2-0.2,0.3-0.2c-0.1,0.1-0.2,0.1-0.4,0.2c0.1-0.1,0.2-0.1,0.4-0.2c-0.1,0.1-0.3,0.1-0.4,0.1c0.1,0,0.3,0,0.4-0.1
				c-0.1,0-0.2,0-0.4,0c0.1,0,0.3,0,0.4,0.1c-0.1,0-0.2,0-0.3-0.1c0.1,0.1,0.2,0.1,0.4,0.2c-0.1,0-0.2-0.1-0.2-0.1
				c0.1,0.1,0.2,0.2,0.3,0.2c-0.1,0-0.1-0.1-0.2-0.2c0.1,0.1,0.2,0.2,0.2,0.3c-0.1-0.1-0.1-0.1-0.1-0.2c0.1,0.1,0.1,0.2,0.2,0.4
				c0-0.1-0.1-0.2-0.1-0.2c0,0.1,0,0.3,0.1,0.4c0-0.1,0-0.2,0-0.3c0,0.1,0,0.3-0.1,0.4c0-0.1,0-0.2,0.1-0.3
				c-0.1,0.1-0.1,0.2-0.2,0.4c0.1-0.1,0.1-0.2,0.2-0.3c-0.1,0.1-0.2,0.2-0.2,0.3c0.1-0.1,0.2-0.2,0.2-0.2c-0.1,0.1-0.2,0.2-0.3,0.2
				c0.1-0.1,0.2-0.1,0.3-0.2c-0.1,0.1-0.2,0.1-0.4,0.2c0.1,0,0.2-0.1,0.2-0.1c-0.1,0-0.3,0-0.4,0.1c0.1,0,0.2,0,0.3,0
				c-0.1,0-0.3,0-0.4-0.1c0.1,0,0.2,0,0.2,0.1c-0.1-0.1-0.2-0.1-0.4-0.2c0.1,0,0.2,0.1,0.2,0.1c-0.1-0.1-0.2-0.2-0.3-0.2
				c0.1,0.1,0.2,0.1,0.2,0.2c-0.1-0.1-0.2-0.2-0.2-0.3c0.1,0.1,0.1,0.2,0.2,0.3c-0.1-0.1-0.1-0.2-0.2-0.4c0,0.1,0.1,0.2,0.1,0.4
				c0-0.1,0-0.3-0.1-0.4c0,0.1,0,0.2,0,0.3c0-0.1,0-0.3,0.1-0.4c0,0.1,0,0.2-0.1,0.3c0.1-0.1,0.1-0.2,0.2-0.4c0,0.1-0.1,0.2-0.1,0.2
				c0.1-0.1,0.2-0.2,0.2-0.3c0,0.1-0.1,0.1-0.1,0.2c-0.3,0.2-0.4,0.7-0.4,1.1c0,0.4,0.2,0.8,0.4,1.1c0.3,0.3,0.7,0.5,1.1,0.4
				c0.4,0,0.7-0.2,1.1-0.4c0.3-0.3,0.5-0.7,0.7-1c0.1-0.3,0.1-0.6,0.1-0.9c0-0.7-0.3-1.4-0.8-2c-0.5-0.5-1.2-0.9-1.9-0.8
				c-0.4,0-0.9,0.1-1.2,0.4c-0.4,0.3-0.6,0.5-0.9,0.9c-0.4,0.6-0.5,1.5-0.4,2.2c0.2,0.8,0.9,1.4,1.7,1.7c0.1,0,0.2,0,0.2,0.1
				c0.2,0,0.4,0.1,0.6,0.1c0.3,0,0.6-0.1,0.9-0.2c0.7-0.3,1.2-0.6,1.6-1.3c0.4-0.6,0.5-1.4,0.2-2.1c-0.2-0.4-0.3-0.7-0.6-1
				c-0.2-0.2-0.5-0.4-0.7-0.5c-0.3-0.1-0.5-0.3-0.8-0.3c-0.5-0.1-0.8-0.1-1.3,0c-0.3,0-0.6,0.2-0.8,0.3c-0.4,0.2-0.6,0.5-0.9,0.8
				c-0.2,0.2-0.3,0.5-0.4,0.8c-0.1,0.5-0.1,0.8,0,1.3c0,0.3,0.2,0.6,0.3,0.9c0.1,0.3,0.3,0.5,0.5,0.8c0.5,0.5,1.2,0.9,2,0.9
				c0.8,0,1.5-0.3,2.1-0.8c1.1-1,1.4-2.7,0.6-4c-0.3-0.5-0.8-1-1.4-1.3c-0.2-0.1-0.4-0.2-0.6-0.2c-0.2-0.1-0.5-0.1-0.7-0.1
				c-0.3,0-0.7,0-1,0.1c-0.3,0.1-0.6,0.2-0.9,0.3c-0.3,0.2-0.6,0.6-0.7,0.9c-0.1,0.4-0.1,0.8,0.2,1.2c0.4,0.6,0.9,1.2,1.3,1.8
				c0.1,0.2,0.2,0.3,0.4,0.4c0.1,0.1,0.3,0.2,0.5,0.3c0.4,0.1,0.8,0.1,1.2-0.2c0.3-0.2,0.6-0.5,0.7-0.9
				C320,673.7,320.1,673.3,319.8,672.9L319.8,672.9z"/>
		</g>
	</g>
	<g>
		<path class="st1" d="M353.9,661.8c-0.5,0.8-1.1,1.6-1.2,2.6c-0.1,1,0.6,2,1.6,2c0.9,0,1.6-1.1,1.5-2c-0.1-0.9-0.8-1.7-1.6-2.2
			c-0.6,0.6,0.2,1.8,1,1.5c-0.2-0.2-0.5-0.3-0.7-0.5c0,0.7,0,1.4-0.1,2.1"/>
		<g>
			<path class="st1" d="M352.6,661.1c-0.7,1-1.2,2-1.4,3.2c-0.1,1.1,0.4,2.3,1.2,2.9c0.5,0.5,1.2,0.7,1.9,0.7c0.7,0,1.3-0.3,1.9-0.7
				c0.4-0.4,0.7-0.9,0.9-1.4c0.2-0.6,0.2-1.2,0.1-1.8c-0.1-0.7-0.5-1.3-0.9-1.8c-0.4-0.5-0.8-0.8-1.3-1.2c-0.5-0.4-1.4-0.2-1.8,0.2
				c-0.7,0.8-0.8,2-0.3,2.9c0.6,0.9,1.6,1.4,2.7,1.1c0.6-0.2,1-0.6,1.1-1.2c0.1-0.6-0.2-1.1-0.7-1.5c-0.2-0.2-0.5-0.3-0.7-0.5
				c-0.4-0.3-1.1-0.3-1.5,0c-0.5,0.3-0.7,0.8-0.7,1.3c0,0.7,0,1.4-0.1,2.1c0,0.8,0.7,1.5,1.5,1.5c0.8,0,1.5-0.7,1.5-1.5
				c0-0.7,0-1.4,0.1-2.1c-0.8,0.4-1.5,0.9-2.3,1.3c0.2,0.2,0.5,0.3,0.7,0.5c0.1-0.9,0.2-1.8,0.4-2.7c-0.1,0-0.1,0-0.1,0
				c0.1,0,0.3,0,0.4-0.1c-0.1,0-0.1,0-0.1,0c0.1,0,0.3,0,0.4,0.1c-0.1,0-0.2,0-0.2-0.1c0.1,0.1,0.2,0.1,0.4,0.2
				c-0.1,0-0.1-0.1-0.2-0.1c0.1,0.1,0.2,0.2,0.3,0.2c-0.1-0.1-0.2-0.1-0.2-0.2c0.1,0.1,0.2,0.2,0.2,0.3c-0.1-0.1-0.1-0.2-0.2-0.3
				c0.1,0.1,0.1,0.2,0.2,0.4c0-0.1-0.1-0.2-0.1-0.2c0,0.1,0,0.3,0.1,0.4c0-0.1,0-0.2,0-0.2c0,0.1,0,0.3-0.1,0.4c0-0.1,0-0.1,0.1-0.2
				c-0.1,0.1-0.1,0.2-0.2,0.4c0,0,0-0.1,0.1-0.1c-0.1,0.1-0.2,0.2-0.2,0.3c0,0,0-0.1,0.1-0.1c-0.6,0.1-1.2,0.2-1.8,0.2
				c0.1,0.1,0.2,0.1,0.2,0.2c-0.1-0.1-0.2-0.2-0.3-0.2c0.3,0.2,0.6,0.5,0.8,0.8c-0.1-0.1-0.2-0.2-0.2-0.3c0.2,0.2,0.3,0.4,0.4,0.7
				c-0.1-0.1-0.1-0.2-0.2-0.4c0.1,0.2,0.1,0.4,0.2,0.6c0-0.1,0-0.3-0.1-0.4c0,0.2,0,0.3,0,0.5c0-0.1,0-0.3,0.1-0.4
				c0,0.2-0.1,0.3-0.1,0.5c0.1-0.1,0.1-0.2,0.2-0.4c-0.1,0.2-0.1,0.3-0.2,0.4c0.1-0.1,0.2-0.2,0.2-0.3c-0.1,0.1-0.2,0.2-0.3,0.3
				c0.1-0.1,0.2-0.2,0.3-0.2c-0.1,0.1-0.2,0.1-0.3,0.2c0.1-0.1,0.2-0.1,0.4-0.2c-0.1,0-0.2,0.1-0.3,0.1c0.1,0,0.3,0,0.4-0.1
				c-0.1,0-0.2,0-0.3,0c0.1,0,0.3,0,0.4,0.1c-0.1,0-0.2,0-0.3-0.1c0.1,0.1,0.2,0.1,0.4,0.2c-0.1,0-0.2-0.1-0.3-0.2
				c0.1,0.1,0.2,0.2,0.3,0.2c-0.1-0.1-0.2-0.2-0.3-0.3c0.1,0.1,0.2,0.2,0.2,0.3c-0.1-0.2-0.2-0.3-0.3-0.5c0.1,0.1,0.1,0.2,0.2,0.4
				c-0.1-0.2-0.1-0.4-0.1-0.5c0,0.1,0,0.3,0.1,0.4c0-0.2,0-0.4,0-0.6c0,0.1,0,0.3-0.1,0.4c0-0.3,0.1-0.6,0.3-0.9
				c-0.1,0.1-0.1,0.2-0.2,0.4c0.2-0.5,0.6-1,0.9-1.5c0.2-0.3,0.2-0.8,0.2-1.2c-0.1-0.3-0.4-0.7-0.7-0.9
				C353.9,660.1,353.1,660.4,352.6,661.1L352.6,661.1z"/>
		</g>
	</g>
	<g>
		<path class="st1" d="M271.3,713.3c-0.6-0.9-2.1-1-2.7-0.1c-0.6,0.9-0.1,2.3,0.9,2.6c1,0.3,2.2-0.7,2.1-1.8c-0.1-0.9-1-1.6-1.9-1.4
			c-0.9,0.2-1.3,1.4-0.8,2.1c0.5,0.7,1.9,0.5,2.1-0.4c0.2-0.9-1-1.7-1.7-1.1"/>
		<g>
			<path class="st1" d="M272.6,712.6c-0.2-0.2-0.3-0.5-0.6-0.7c-0.4-0.3-0.6-0.4-1-0.6c-0.6-0.2-1.2-0.2-1.8-0.1
				c-0.6,0.1-1.1,0.4-1.5,0.8c-0.2,0.2-0.4,0.4-0.5,0.7c-0.1,0.2-0.3,0.5-0.3,0.8c-0.1,0.6-0.1,1.2,0.1,1.8c0.1,0.3,0.2,0.5,0.4,0.8
				c0.3,0.4,0.5,0.6,0.8,0.9c0.2,0.2,0.5,0.3,0.8,0.4c0.3,0.1,0.6,0.1,0.9,0.1c0.3,0,0.6-0.1,0.9-0.2c0.4-0.2,0.7-0.3,1.1-0.6
				c0.5-0.4,0.8-1,1-1.6c0.1-0.2,0.1-0.4,0.1-0.6c0-0.1,0-0.2,0-0.3c0-0.5-0.1-0.8-0.3-1.3c-0.1-0.3-0.3-0.5-0.6-0.8
				c-0.2-0.2-0.5-0.4-0.8-0.6c-0.7-0.3-1.5-0.5-2.2-0.3c-0.7,0.2-1.2,0.7-1.6,1.3c-0.2,0.2-0.3,0.5-0.3,0.8
				c-0.1,0.3-0.1,0.6-0.1,0.9c0.1,0.7,0.3,1.4,0.9,1.8c0.3,0.3,0.6,0.5,1,0.6c0.3,0.1,0.6,0.1,0.8,0.1c0.7,0,1.3-0.3,1.8-0.7
				c0.2-0.2,0.4-0.4,0.5-0.6c0.2-0.4,0.3-0.8,0.3-1.2c0-0.7-0.3-1.4-0.9-1.8c-0.3-0.3-0.6-0.5-1-0.6c-0.1,0-0.3-0.1-0.4-0.1
				c-0.2,0-0.3,0-0.4,0c-0.4,0-0.8,0.1-1.1,0.4c-0.2,0.1-0.3,0.2-0.4,0.4c-0.1,0.1-0.2,0.3-0.3,0.5c-0.1,0.4-0.1,0.8,0.2,1.2
				c0.2,0.3,0.5,0.6,0.9,0.7c0.4,0.1,0.8,0.1,1.2-0.2c0.1,0,0.1-0.1,0.2-0.1c-0.1,0.1-0.2,0.1-0.4,0.2c0.1,0,0.1,0,0.2-0.1
				c-0.1,0-0.3,0-0.4,0.1c0.1,0,0.2,0,0.2,0c-0.1,0-0.3,0-0.4-0.1c0.1,0,0.2,0,0.3,0.1c-0.1-0.1-0.2-0.1-0.4-0.2
				c0.1,0,0.2,0.1,0.3,0.2c-0.1-0.1-0.2-0.2-0.3-0.2c0.1,0.1,0.2,0.1,0.2,0.2c-0.1-0.1-0.2-0.2-0.2-0.3c0.1,0.1,0.1,0.2,0.1,0.2
				c-0.1-0.1-0.1-0.2-0.2-0.4c0,0.1,0.1,0.2,0.1,0.2c0-0.1,0-0.3-0.1-0.4c0,0.1,0,0.1,0,0.2c0-0.1,0-0.3,0.1-0.4
				c0,0.1,0,0.2-0.1,0.2c0.1-0.1,0.1-0.2,0.2-0.4c0,0.1-0.1,0.1-0.1,0.2c0.1-0.1,0.2-0.2,0.2-0.3c-0.1,0.1-0.1,0.1-0.2,0.2
				c0.1-0.1,0.2-0.2,0.3-0.2c-0.1,0.1-0.2,0.1-0.3,0.2c0.1-0.1,0.2-0.1,0.4-0.2c-0.1,0-0.2,0.1-0.4,0.1c0.1,0,0.3,0,0.4-0.1
				c-0.1,0-0.2,0-0.3,0c0.1,0,0.3,0,0.4,0.1c-0.1,0-0.2,0-0.3-0.1c0.1,0.1,0.2,0.1,0.4,0.2c-0.1,0-0.2-0.1-0.2-0.1
				c0.1,0.1,0.2,0.2,0.3,0.2c-0.1-0.1-0.1-0.1-0.2-0.2c0.1,0.1,0.2,0.2,0.2,0.3c-0.1-0.1-0.1-0.1-0.1-0.2c0.1,0.1,0.1,0.2,0.2,0.4
				c0-0.1-0.1-0.2-0.1-0.3c0,0.1,0,0.3,0.1,0.4c0-0.1,0-0.2,0-0.4c0,0.1,0,0.3-0.1,0.4c0-0.1,0.1-0.2,0.1-0.4
				c-0.1,0.1-0.1,0.2-0.2,0.4c0.1-0.1,0.1-0.2,0.2-0.4c-0.1,0.1-0.2,0.2-0.2,0.3c0.1-0.1,0.2-0.2,0.3-0.3c-0.1,0.1-0.2,0.2-0.3,0.2
				c0.1-0.1,0.2-0.1,0.3-0.1c-0.1,0.1-0.2,0.1-0.4,0.2c0.1,0,0.2-0.1,0.3-0.1c-0.1,0-0.3,0-0.4,0.1c0.1,0,0.3,0,0.4,0
				c-0.1,0-0.3,0-0.4-0.1c0.1,0,0.2,0.1,0.4,0.1c-0.1-0.1-0.2-0.1-0.4-0.2c0.1,0.1,0.3,0.1,0.4,0.2c-0.1-0.1-0.2-0.2-0.3-0.2
				c0.1,0.1,0.2,0.2,0.3,0.3c-0.1-0.1-0.2-0.2-0.2-0.3c0.1,0.1,0.2,0.2,0.2,0.4c-0.1-0.1-0.1-0.2-0.2-0.4c0,0.1,0.1,0.2,0.1,0.4
				c0-0.1,0-0.3-0.1-0.4c0,0.1,0,0.3,0,0.4c0-0.1,0-0.3,0.1-0.4c0,0.1-0.1,0.3-0.1,0.4c0.1-0.1,0.1-0.2,0.2-0.4
				c-0.1,0.1-0.1,0.2-0.2,0.4c0.1-0.1,0.2-0.2,0.2-0.3c-0.1,0.1-0.2,0.3-0.4,0.4c0.1-0.1,0.2-0.2,0.3-0.2c-0.1,0.1-0.3,0.2-0.4,0.3
				c0.1-0.1,0.2-0.1,0.4-0.2c-0.1,0.1-0.3,0.1-0.4,0.1c0.1,0,0.3,0,0.4-0.1c-0.1,0-0.3,0-0.4,0c0.1,0,0.3,0,0.4,0.1
				c-0.1,0-0.2-0.1-0.3-0.1c0.1,0.1,0.2,0.1,0.4,0.2c-0.1-0.1-0.2-0.1-0.3-0.2c0.1,0.1,0.2,0.2,0.3,0.2c-0.1-0.1-0.2-0.2-0.3-0.3
				c0.1,0.1,0.2,0.2,0.2,0.3c-0.1-0.1-0.2-0.3-0.2-0.4c0.1,0.1,0.1,0.2,0.2,0.4c-0.1-0.2-0.1-0.3-0.1-0.5c0,0.1,0,0.3,0.1,0.4
				c0-0.2,0-0.3,0-0.5c0,0.1,0,0.3-0.1,0.4c0-0.1,0.1-0.3,0.1-0.4c-0.1,0.1-0.1,0.2-0.2,0.4c0.1-0.1,0.1-0.2,0.2-0.3
				c-0.1,0.1-0.2,0.2-0.2,0.3c0.1-0.1,0.2-0.2,0.2-0.2c-0.1,0.1-0.2,0.2-0.3,0.2c0.1-0.1,0.2-0.1,0.4-0.2c-0.1,0.1-0.2,0.1-0.4,0.2
				c0.2-0.1,0.3-0.1,0.5-0.1c-0.1,0-0.3,0-0.4,0.1c0.2,0,0.3,0,0.5,0c-0.1,0-0.3,0-0.4-0.1c0.2,0,0.3,0.1,0.5,0.1
				c-0.1-0.1-0.2-0.1-0.4-0.2c0.1,0.1,0.2,0.1,0.4,0.2c-0.1-0.1-0.2-0.2-0.3-0.2c0.1,0.1,0.2,0.2,0.3,0.3c-0.1-0.1-0.2-0.2-0.2-0.3
				c0,0,0.1,0.1,0.1,0.1c0.2,0.3,0.5,0.6,0.9,0.7c0.4,0.1,0.8,0.1,1.2-0.2c0.3-0.2,0.6-0.5,0.7-0.9
				C272.8,713.3,272.8,712.9,272.6,712.6L272.6,712.6z"/>
		</g>
	</g>
</g>
</svg>
